<svg id="Icons" height="512" viewBox="0 0 60 60" width="512" xmlns="http://www.w3.org/2000/svg"><path d="m59 13v34a4 4 0 0 1 -4 4h-50a4 4 0 0 1 -4-4v-34l1-1h56z" fill="#e1efff"/><path d="m59 9v4h-58v-4a4 4 0 0 1 4-4h50a4 4 0 0 1 4 4z" fill="#d14c7c"/><g fill="#e1efff"><rect height="8" rx="2" width="4" x="8" y="1"/><rect height="8" rx="2" width="4" x="18" y="1"/><rect height="8" rx="2" width="4" x="28" y="1"/><rect height="8" rx="2" width="4" x="38" y="1"/><rect height="8" rx="2" width="4" x="48" y="1"/></g><circle cx="18" cy="28" fill="#e3c84e" r="4"/><path d="m20 52h-8.4a1.6 1.6 0 0 1 -1.6-1.6v-6.4a8 8 0 0 1 13.66-5.66 8.1 8.1 0 0 1 1.43 1.95z" fill="#e3c84e"/><circle cx="42" cy="28" fill="#e3c84e" r="4"/><path d="m34.91 40.29a8.1 8.1 0 0 1 1.43-1.95 8 8 0 0 1 13.66 5.66v6.4a1.6 1.6 0 0 1 -1.6 1.6h-8.4z" fill="#e3c84e"/><circle cx="30" cy="30" fill="#3979c6" r="4"/><path d="m30 39a10 10 0 0 1 10 10v8a2 2 0 0 1 -2 2h-16a2 2 0 0 1 -2-2v-8a10 10 0 0 1 10-10z" fill="#3979c6"/><path d="m55 4h-2v-1a3 3 0 0 0 -6 0v1h-4v-1a3 3 0 0 0 -6 0v1h-4v-1a3 3 0 0 0 -6 0v1h-4v-1a3 3 0 0 0 -6 0v1h-4v-1a3 3 0 0 0 -6 0v1h-2a5.006 5.006 0 0 0 -5 5v38a5.006 5.006 0 0 0 5 5h1a1 1 0 0 0 0-2h-1a3 3 0 0 1 -3-3v-33h56v33a3 3 0 0 1 -3 3h-4v-6a9 9 0 0 0 -15.367-6.367 8.9 8.9 0 0 0 -1.089 1.361 10.883 10.883 0 0 0 -9.088 0 8.875 8.875 0 0 0 -1.092-1.364 9 9 0 0 0 -15.364 6.37v6.4a2.6 2.6 0 0 0 2.6 2.6h7.4v4a3 3 0 0 0 3 3h16a3 3 0 0 0 3-3v-4h7.4a2.586 2.586 0 0 0 2.034-1h4.566a5.006 5.006 0 0 0 5-5v-38a5.006 5.006 0 0 0 -5-5zm-43.4 47a.607.607 0 0 1 -.6-.6v-6.4a6.972 6.972 0 0 1 12.721-4.019 10.988 10.988 0 0 0 -4.721 9.019v2zm27.4 6a1 1 0 0 1 -1 1h-16a1 1 0 0 1 -1-1v-8a9 9 0 0 1 18 0zm10-6.6a.607.607 0 0 1 -.6.6h-7.4v-2a10.991 10.991 0 0 0 -4.721-9.019 6.993 6.993 0 0 1 12.721 4.019zm0-47.4a1 1 0 0 1 2 0v4a1 1 0 0 1 -2 0zm-10 0a1 1 0 0 1 2 0v4a1 1 0 0 1 -2 0zm-10 0a1 1 0 0 1 2 0v4a1 1 0 0 1 -2 0zm-10 0a1 1 0 0 1 2 0v4a1 1 0 0 1 -2 0zm-10 0a1 1 0 0 1 2 0v4a1 1 0 0 1 -2 0zm-7 9v-3a3 3 0 0 1 3-3h2v1a3 3 0 0 0 6 0v-1h4v1a3 3 0 0 0 6 0v-1h4v1a3 3 0 0 0 6 0v-1h4v1a3 3 0 0 0 6 0v-1h4v1a3 3 0 0 0 6 0v-1h2a3 3 0 0 1 3 3v3z" fill="#373737"/><path d="m35 30a5 5 0 1 0 -5 5 5.006 5.006 0 0 0 5-5zm-8 0a3 3 0 1 1 3 3 3 3 0 0 1 -3-3z" fill="#373737"/><path d="m23 28a5 5 0 1 0 -5 5 5.006 5.006 0 0 0 5-5zm-8 0a3 3 0 1 1 3 3 3 3 0 0 1 -3-3z" fill="#373737"/><path d="m47 28a5 5 0 1 0 -5 5 5.006 5.006 0 0 0 5-5zm-8 0a3 3 0 1 1 3 3 3 3 0 0 1 -3-3z" fill="#373737"/></svg>