<svg height="512" viewBox="0 0 512 512" width="512" xmlns="http://www.w3.org/2000/svg"><g id="Layer_2"><g><g fill="#68c0e0"><path d="m159.469 108.721h24.531v273.96h-24.531z"/><path d="m328 108.721h24.531v273.96h-24.531z"/><path d="m243.734 105.676h24.531v280.05h-24.531z" transform="matrix(0 -1 1 0 10.299 501.701)"/></g><path d="m115.364 234.047h24.531v23.309h-24.531z" fill="#3282a1" transform="matrix(0 -1 1 0 -118.071 373.33)"/><path d="m231.469 72.718h24.531v309.963h-24.531z" fill="#68c0e0"/><path d="m256 72.718h24.531v309.963h-24.531z" fill="#68c0e0"/><g><path d="m449.818 250.799h-25c0-99.66-142.153-161.137-168.813-171.783-26.629 10.659-168.823 72.273-168.823 171.783h-25c0-29.981 10.357-59.174 30.785-86.765 15.856-21.417 37.814-41.907 65.262-60.9 46.13-31.919 91.598-48.58 93.511-49.273l4.26-1.546 4.261 1.545c1.913.693 47.381 17.354 93.511 49.273 27.448 18.993 49.405 39.483 65.263 60.9 20.426 27.592 30.783 56.784 30.783 86.766z" fill="#68c0e0"/></g><path d="m115.975 382.681h280.05v82.193h-280.05z" fill="#68c0e0"/><path d="m153.148 464.873h-37.173v-82.192h23.309v33.699h13.864z" fill="#3282a1"/><circle cx="74.682" cy="42.028" fill="#f8d250" r="34.504"/><path d="m63.486 42.028c0-14.965 9.53-27.701 22.85-32.482-3.641-1.307-7.563-2.023-11.654-2.023-19.056 0-34.504 15.448-34.504 34.504s15.448 34.504 34.504 34.504c4.091 0 8.013-.716 11.654-2.023-13.321-4.779-22.85-17.515-22.85-32.48z" fill="#f8ae46"/><path d="m19.524 416.38h110.315v48.493h-110.315z" fill="#cdcdc6"/><path d="m19.524 416.38h23.309v48.493h-23.309z" fill="#989898"/><path d="m19.524 85.588h110.315v48.493h-110.315z" fill="#cdcdc6"/><path d="m19.524 85.588h23.309v48.493h-23.309z" fill="#989898"/><path d="m33.388 133.798h82.587v282.583h-82.587z" fill="#cdcdc6"/><path d="m33.388 133.798h23.309v282.583h-23.309z" fill="#989898"/><path d="m86.324 85.588h-23.285c-16.376 0-29.651-13.275-29.651-29.651h82.587c0 16.376-13.275 29.651-29.651 29.651z" fill="#cdcdc6"/><path d="m56.697 55.937h-23.309c0 16.376 13.275 29.651 29.651 29.651h23.284.012c-16.37-.007-29.638-13.279-29.638-29.651z" fill="#989898"/><circle cx="437.318" cy="42.028" fill="#f8d250" r="34.504"/><path d="m426.123 42.028c0-14.965 9.53-27.701 22.85-32.482-3.641-1.307-7.564-2.023-11.654-2.023-19.056 0-34.504 15.448-34.504 34.504s15.448 34.504 34.504 34.504c4.091 0 8.013-.716 11.654-2.023-13.321-4.779-22.85-17.515-22.85-32.48z" fill="#f8ae46"/><path d="m382.161 416.38h110.315v48.493h-110.315z" fill="#cdcdc6"/><path d="m382.161 416.38h23.309v48.493h-23.309z" fill="#989898"/><path d="m382.161 85.588h110.315v48.493h-110.315z" fill="#cdcdc6"/><path d="m382.161 85.588h23.309v48.493h-23.309z" fill="#989898"/><path d="m396.025 134.081h82.587v282.299h-82.587z" fill="#cdcdc6"/><path d="m396.025 134.081h23.309v282.299h-23.309z" fill="#989898"/><path d="m448.961 85.588h-23.284c-16.376 0-29.651-13.275-29.651-29.651h82.587c-.001 16.376-13.276 29.651-29.652 29.651z" fill="#cdcdc6"/><path d="m419.333 55.937h-23.309c0 16.376 13.275 29.651 29.651 29.651h23.284.012c-16.369-.007-29.638-13.279-29.638-29.651z" fill="#989898"/><path d="m7.524 464.873h496.952v39.603h-496.952z" fill="#cdcdc6"/><path d="m7.524 464.873h23.654v39.603h-23.654z" fill="#989898"/><path d="m504.476 459.873h-7v-43.492c0-2.762-2.239-5-5-5h-8.864v-272.3h8.864c2.761 0 5-2.238 5-5v-48.493c0-2.762-2.239-5-5-5h-19.203c6.377-6.285 10.339-15.012 10.339-24.651 0-2.762-2.239-5-5-5h-2.816c.666-2.864 1.027-5.844 1.027-8.908 0-21.783-17.722-39.505-39.504-39.505s-39.504 17.722-39.504 39.505c0 3.064.361 6.044 1.027 8.908h-2.816c-2.761 0-5 2.238-5 5 0 9.64 3.962 18.366 10.339 24.651h-19.203c-2.761 0-5 2.238-5 5v28.762c-6.468-5.207-13.311-10.322-20.544-15.327-46.676-32.298-92.715-49.161-94.651-49.862l-4.261-1.545c-1.102-.4-2.308-.4-3.409 0l-4.26 1.544c-1.937.702-47.978 17.565-94.653 49.863-7.233 5.005-14.069 10.122-20.543 15.328v-28.763c0-2.762-2.239-5-5-5h-19.208c6.378-6.285 10.344-15.011 10.344-24.651 0-2.762-2.239-5-5-5h-2.818c.666-2.864 1.029-5.844 1.029-8.908 0-21.783-17.722-39.505-39.504-39.505s-39.507 17.721-39.507 39.504c0 3.064.363 6.044 1.029 8.908h-2.818c-2.761 0-5 2.238-5 5 0 9.641 3.966 18.366 10.344 24.651h-19.208c-2.761 0-5 2.238-5 5v48.493c0 2.762 2.239 5 5 5h8.864v272.3h-8.864c-2.761 0-5 2.238-5 5v43.492h-7c-2.761 0-5 2.238-5 5v39.604c0 2.762 2.239 5 5 5h496.952c2.761 0 5-2.238 5-5v-39.604c0-2.761-2.239-4.999-5-4.999zm-17 0h-100.315v-38.492h100.315zm-226.471 0v-72.192h130.02v23.7h-8.864c-2.761 0-5 2.238-5 5v43.492zm-126.166 0v-43.492c0-2.762-2.239-5-5-5h-8.864v-23.7h130.03v72.192zm256.186-221.437v14.531h-105.494v-14.531zm-105.494 24.531h37.469v114.714h-37.469zm47.469 0h14.531v114.714h-14.531zm24.531 0h33.494v114.714h-33.494zm33.494-34.531h-33.494v-84.978c13.275 10.848 24.444 21.933 33.494 33.225zm-43.494 0h-14.531v-103.127c4.818 3.237 9.642 6.643 14.409 10.219.041.031.081.063.122.093zm-24.531 0h-37.469v-130.585c11.166 5.571 24.114 12.584 37.469 20.963zm-47.469 149.245h-14.526v-291.187c3.938 1.676 8.866 3.852 14.526 6.511zm-24.526 0h-14.537v-284.652c5.665-2.667 10.596-4.849 14.537-6.529zm-62.005 0v-114.714h37.469v114.714zm37.469-139.245v14.531h-105.494v-14.531zm-105.494 24.531h33.494v114.714h-33.494zm43.494 0h14.531v114.714h-14.531zm62-34.531h-37.469v-109.562c13.355-8.388 26.302-15.41 37.469-20.991zm-47.469 0h-14.531v-92.741c.047-.035.093-.071.14-.106 4.761-3.573 9.579-6.977 14.391-10.213zm-24.531 0h-33.494v-51.672c9.049-11.289 20.218-22.375 33.494-33.229zm319.143 182.945h-72.587v-272.3h72.587zm-65.798-369.353c0-16.269 13.236-29.505 29.504-29.505s29.504 13.236 29.504 29.505c0 3.104-.487 6.096-1.38 8.908h-56.249c-.892-2.812-1.379-5.803-1.379-8.908zm-6.279 18.909h71.567c-2.317 11.204-12.261 19.651-24.142 19.651h-23.284c-11.88 0-21.824-8.447-24.141-19.651zm-14.374 29.651h100.315v38.493h-100.315zm-252.322 43.493v-6.772c8.07-6.845 16.811-13.543 26.234-20.063 45.622-31.568 90.482-48 92.371-48.685l2.556-.927 2.557.928c1.887.684 46.747 17.115 92.369 48.684 9.421 6.519 18.168 13.214 26.234 20.058v6.778c0 2.762 2.239 5 5 5h8.029c.278.268.559.535.835.803v21.498c-44.594-49.343-114.104-79.399-133.165-87.01-1.191-.475-2.521-.476-3.712.002-19.061 7.629-88.576 37.741-133.172 87.073v-21.587c.268-.261.538-.521.808-.78h8.056c2.762 0 5-2.238 5-5zm-89.662-92.053c0-16.269 13.236-29.505 29.504-29.505s29.504 13.236 29.504 29.505c0 3.105-.494 6.096-1.388 8.908h-56.231c-.895-2.812-1.389-5.802-1.389-8.908zm-6.279 18.909h71.567c-2.317 11.204-12.261 19.651-24.142 19.651h-23.283c-11.881 0-21.825-8.447-24.142-19.651zm-14.374 29.651h100.315v38.493h-100.315zm13.864 48.493h72.587v272.3h-72.587zm-13.864 282.3h100.315v38.492h-100.315zm474.952 78.096h-486.952v-29.604h486.952z"/></g></g></svg>