<svg id="Layer_1" enable-background="new 0 0 512 512" height="512" viewBox="0 0 512 512" width="512" xmlns="http://www.w3.org/2000/svg"><g clip-rule="evenodd" fill-rule="evenodd"><g><path d="m329.604 464.386h-147.204c11.749-16.625 21.49-59.461 17.271-92.507h111.626c-4.218 33.046 6.564 75.882 18.307 92.507z" fill="#cad0d7"/><path d="m156.167 458.67h199.671c10.266 0 18.665 8.399 18.665 18.665 0 10.266-8.399 18.665-18.665 18.665h-199.671c-10.266 0-18.665-8.399-18.665-18.665.001-10.266 8.4-18.665 18.665-18.665z" fill="#e4e8eb"/><path d="m447.036 77.509c12.437 0 22.524 10.087 22.524 22.529v253.314c0 16.935-13.728 30.663-30.663 30.663h-365.794c-16.936 0-30.663-13.728-30.663-30.663v-245.18c0-16.936 13.727-30.663 30.663-30.663z" fill="#cad0d7"/><path d="m60.236 305.226h391.527c0-68.396 0-136.792 0-205.188 0-2.616-2.11-4.732-4.728-4.732h-373.932c-7.113 0-12.867 5.754-12.867 12.867z" fill="#38a8d2"/><path d="m469.56 323.023v30.329c0 16.936-13.728 30.663-30.663 30.663h-365.794c-16.936 0-30.663-13.728-30.663-30.663v-30.329z" fill="#e4e8eb"/><path d="m239.142 360.519c-3.866 0-7-3.134-7-7s3.134-7 7-7h33.716c3.866 0 7 3.134 7 7s-3.134 7-7 7z" fill="#cad0d7"/></g><path d="m412.762 91.849c-12.814 0-19.243 15.524-10.183 24.584 1.669 1.669 1.669 4.376 0 6.045l-9.202 9.202c-1.669 1.669-4.376 1.669-6.045 0-9.06-9.06-24.583-2.631-24.583 10.183 0 2.362-1.914 4.274-4.274 4.274h-13.013c-2.36 0-4.274-1.913-4.274-4.274 0-12.829-15.512-19.254-24.583-10.183-1.669 1.669-4.376 1.669-6.045 0l-9.202-9.202c-1.669-1.669-1.669-4.376 0-6.045 9.06-9.06 2.631-24.584-10.183-24.584-2.361 0-4.274-1.914-4.274-4.274v-13.013c0-2.36 1.913-4.274 4.274-4.274 12.814 0 19.243-15.524 10.183-24.583-1.669-1.669-1.669-4.376 0-6.045l9.202-9.202c1.669-1.669 4.376-1.669 6.045 0 9.06 9.06 24.583 2.631 24.583-10.183 0-2.361 1.914-4.274 4.274-4.274h13.013c2.36 0 4.274 1.913 4.274 4.274 0 12.814 15.524 19.243 24.583 10.183 1.669-1.669 4.376-1.669 6.045 0l9.202 9.202c1.669 1.669 1.669 4.376 0 6.045-9.06 9.06-2.631 24.583 10.183 24.583 2.362 0 4.274 1.914 4.274 4.274v13.013c0 2.36-1.913 4.274-4.274 4.274zm-60.793-42.044c-17.266 0-31.263 13.997-31.263 31.263s13.997 31.263 31.263 31.263 31.263-13.997 31.263-31.263-13.997-31.263-31.263-31.263z" fill="#fdcd56"/><path d="m258.84 214.664c-17.113 0-25.699 20.733-13.6 32.833 2.229 2.229 2.229 5.844 0 8.073l-12.29 12.29c-2.229 2.229-5.844 2.229-8.073 0-12.1-12.1-32.833-3.513-32.833 13.6 0 3.154-2.556 5.708-5.708 5.708h-17.38c-3.152 0-5.708-2.554-5.708-5.708 0-17.134-20.717-25.715-32.833-13.6-2.229 2.229-5.845 2.229-8.073 0l-12.29-12.29c-2.229-2.229-2.229-5.844 0-8.073 12.1-12.1 3.514-32.833-13.6-32.833-3.154 0-5.708-2.556-5.708-5.708v-17.38c0-3.152 2.555-5.708 5.708-5.708 17.114 0 25.7-20.733 13.6-32.833-2.229-2.229-2.229-5.844 0-8.073l12.29-12.29c2.229-2.229 5.844-2.229 8.073 0 12.1 12.1 32.833 3.514 32.833-13.599 0-3.154 2.557-5.709 5.708-5.709h17.38c3.152 0 5.708 2.555 5.708 5.709 0 17.113 20.733 25.699 32.833 13.599 2.229-2.229 5.844-2.229 8.073 0l12.29 12.29c2.229 2.229 2.229 5.844 0 8.073-12.1 12.1-3.514 32.833 13.6 32.833 3.154 0 5.708 2.557 5.708 5.708v17.38c.001 3.151-2.554 5.708-5.708 5.708zm-81.192-56.152c-23.06 0-41.754 18.694-41.754 41.754s18.694 41.754 41.754 41.754 41.754-18.694 41.754-41.754-18.694-41.754-41.754-41.754z" fill="#fdcd56"/><path d="m433.129 193.265c3.866 0 7 3.134 7 7s-3.134 7-7 7h-132.149c-3.866 0-7-3.134-7-7s3.134-7 7-7zm-66.074 86.901c3.866 0 7 3.134 7 7s-3.134 7-7 7h-66.075c-3.866 0-7-3.134-7-7s3.134-7 7-7zm66.074-43.45c3.866 0 7 3.134 7 7s-3.134 7-7 7h-132.149c-3.866 0-7-3.134-7-7s3.134-7 7-7z" fill="#f4f6f8"/></g></svg>