<?xml version="1.0" encoding="UTF-8" standalone="no"?>
<!-- Generator: Adobe Illustrator 19.0.0, SVG Export Plug-In . SVG Version: 6.00 Build 0)  -->

<svg
   version="1.1"
   id="Capa_1"
   x="0px"
   y="0px"
   viewBox="0 0 415 463"
   xml:space="preserve"
   width="415"
   height="463"
   xmlns:xlink="http://www.w3.org/1999/xlink"
   xmlns="http://www.w3.org/2000/svg"
   xmlns:svg="http://www.w3.org/2000/svg"><defs
   id="defs20"><linearGradient
     id="linearGradient2"><stop
       style="stop-color:#349d45;stop-opacity:1;"
       offset="0"
       id="stop1" /><stop
       style="stop-color:#1f5c29;stop-opacity:1;"
       offset="1"
       id="stop2" /></linearGradient><linearGradient
     xlink:href="#linearGradient2"
     id="linearGradient32"
     x1="24"
     y1="231.5"
     x2="439"
     y2="231.5"
     gradientUnits="userSpaceOnUse" /><linearGradient
     xlink:href="#linearGradient2"
     id="linearGradient3"
     gradientUnits="userSpaceOnUse"
     x1="24"
     y1="231.5"
     x2="439"
     y2="231.5" /><linearGradient
     xlink:href="#linearGradient2"
     id="linearGradient4"
     gradientUnits="userSpaceOnUse"
     x1="24"
     y1="231.5"
     x2="439"
     y2="231.5" /><linearGradient
     xlink:href="#linearGradient2"
     id="linearGradient5"
     gradientUnits="userSpaceOnUse"
     x1="24"
     y1="231.5"
     x2="439"
     y2="231.5" /><linearGradient
     xlink:href="#linearGradient2"
     id="linearGradient6"
     gradientUnits="userSpaceOnUse"
     x1="24"
     y1="231.5"
     x2="439"
     y2="231.5" /><linearGradient
     xlink:href="#linearGradient2"
     id="linearGradient7"
     gradientUnits="userSpaceOnUse"
     x1="24"
     y1="231.5"
     x2="439"
     y2="231.5" /><linearGradient
     xlink:href="#linearGradient2"
     id="linearGradient8"
     gradientUnits="userSpaceOnUse"
     x1="24"
     y1="231.5"
     x2="439"
     y2="231.5" /></defs>
<g
   id="g5"
   style="fill:url(#linearGradient32);stroke:none"
   transform="translate(-24)">
	
	<path
   d="m 49.65081,218.91174 c 3.492429,-8.82845 12.647487,-13.76206 21.657393,-12.29494 -4.688703,18.60072 5.04432,38.30161 23.350761,45.54338 2.35429,0.93132 5.016802,-0.22224 5.947906,-2.57598 0.9311,-2.35372 -0.22168,-5.01656 -2.575972,-5.94789 -15.196934,-6.0117 -22.669649,-23.26615 -16.657947,-38.46308 2.95448,-7.46863 8.658822,-13.29806 16.06266,-16.41462 2.332355,-0.98187 3.427759,-3.66954 2.445509,-6.00269 -0.982202,-2.33316 -3.669278,-3.42834 -6.002441,-2.44613 -8.371508,3.52437 -15.077797,9.70203 -19.244359,17.61977 -13.74695,-3.17478 -28.163125,4.10046 -33.507403,17.61023 -0.931113,2.35373 0.221675,5.01658 2.575969,5.94789 2.354291,0.93133 5.016805,-0.22224 5.947907,-2.57596 z"
   id="path4-7"
   style="display:inline;fill:url(#linearGradient3);stroke:none;stroke-width:0.611105" /><path
   d="m 111.5,376 c -3.1763,0 -5.75,2.57447 -5.75,5.75 0,26.84407 21.83927,48.68333 48.68333,48.68333 0.27754,0 0.55584,-0.01 0.83414,-0.0146 -0.28827,2.13823 -0.4508,4.31556 -0.4508,6.53123 0,3.17553 2.5737,5.75 5.75,5.75 3.1763,0 5.75,-2.57447 5.75,-5.75 0,-20.50297 16.68036,-37.18333 37.18333,-37.18333 3.1763,0 5.75,-2.57447 5.75,-5.75 0,-3.17554 -2.5737,-5.75 -5.75,-5.75 -20.40177,0 -37.9017,12.62086 -45.13137,30.46043 -1.30256,0.13647 -2.62046,0.20623 -3.9353,0.20623 -20.50296,4e-5 -37.18333,-16.68032 -37.18333,-37.18329 0,-3.17553 -2.5737,-5.75 -5.75,-5.75 z"
   id="path2"
   style="display:inline;fill:url(#linearGradient4);stroke:none;stroke-width:0.766667" />
	<path
   id="path3"
   style="display:inline;fill:url(#linearGradient5);stroke:none"
   d="M 199.5,0 C 175.838,0 145.00164,13.383844 116.80664,35.839844 99.883645,43.113844 88,59.943 88,79.5 88,85.628 89.159531,91.600875 91.394531,97.171875 62.152531,102.84187 40,128.626 40,159.5 c 0,6.418 0.965,12.73475 2.875,18.84375 C 30.82,190.24375 24,206.425 24,223.5 c 0,13.348 4.148891,25.74061 11.212891,35.97461 C 27.871891,270.08661 24,282.466 24,295.5 24,318.588 36.586625,339.74248 56.515625,350.89648 56.172625,353.74848 56,356.626 56,359.5 c 0,31.144 20.314072,58.6785 49.78906,68.0625 C 118.61006,449.5045 141.965,463 167.5,463 c 27.995,0 52.269,-16.18083 64,-39.67383 11.731,23.493 36.005,39.67383 64,39.67383 25.535,0 48.88994,-13.4955 61.71094,-35.4375 C 386.68594,418.1775 407,390.643 407,359.5 c 0,-2.874 -0.17265,-5.75152 -0.51562,-8.60352 C 426.41338,339.74248 439,318.588 439,295.5 439,282.466 435.12811,270.08661 427.78711,259.47461 434.85111,249.24061 439,236.848 439,223.5 439,206.425 432.18,190.24375 420.125,178.34375 422.034,172.23575 423,165.918 423,159.5 423,128.626 400.84747,102.84187 371.60547,97.171875 373.84047,91.600875 375,85.628 375,79.5 375,59.943 363.11636,43.113844 346.19336,35.839844 317.99836,13.383844 287.162,0 263.5,0 250.347,0 238.683,6.468764 231.5,16.384766 224.317,6.468764 212.653,0 199.5,0 Z m 0,15 c 13.509,0 24.5,10.99 24.5,24.5 v 87.8125 h 16.51172 c 1.74401,-4.87702 4.9863,-9.03072 9.1543,-11.9375 h -5.22852 v -14.44531 c -1.91329,1.06055 -3.73399,2.26971 -5.4375,3.62109 V 39.5 C 239,25.99 249.991,15 263.5,15 c 15.046,0 33.8912,6.630547 53.0332,18.310547 -13.657,3.284 -25.51525,12.559888 -31.78125,25.462891 -1.81,3.726998 -0.25725,8.213484 3.46875,10.021484 3.726,1.81 8.21344,0.256297 10.02344,-3.470703 C 303.73314,54.020219 314.943,47 327.5,47 c 4.053,0 7.93267,0.751281 11.51367,2.113281 0.422,0.22 0.85969,0.394344 1.30469,0.527344 C 351.88236,54.624625 360,66.13 360,79.5 c 0,5.921 -1.57617,11.626531 -4.57812,16.644531 C 333.39337,97.54929 314.43345,110.26508 304.16992,128.5 H 320.625 v 2.125 C 329.47327,118.74403 343.5811,111 359.5,111 c 26.743,0 48.5,21.757 48.5,48.5 0,6.244 -1.19941,12.36908 -3.56641,18.20508 -1.225,3.02 -0.36132,6.48422 2.13868,8.57422 C 417.64727,195.5363 424,209.104 424,223.5 c 0,26.743 -21.757,48.5 -48.5,48.5 -4.142,0 -7.5,3.357 -7.5,7.5 0,4.143 3.358,7.5 7.5,7.5 16.064,0 30.74345,-6.00791 41.93945,-15.87891 4.306,7.365 6.56055,15.67991 6.56055,24.37891 0,19.126 -11.32084,36.51764 -28.83984,44.30664 -3.215,1.43 -5.00279,4.90161 -4.30078,8.34961 0.757,3.718 1.14062,7.5357 1.14062,11.3457 0,25.461 -17.18973,47.86819 -41.80273,54.49219 -2.017,0.543 -3.7155,1.901 -4.6875,3.75 C 335.69177,436.40514 316.529,448 295.5,448 264.346,448 239,422.654 239,391.5 c 0,-2.109 -0.0101,-4.13481 0.006,-6.25 0.0454,-0.6852 -0.006,-1.3352 -0.006,-2.0332 V 334.24414 H 224.18359 C 224.03757,351.58436 223.93041,369.62993 224,391.5 c 0.0991,31.15384 -25.346,56.5 -56.5,56.5 -21.029,0 -40.19177,-11.59386 -50.00977,-30.25586 -0.973,-1.849 -2.6705,-3.20895 -4.6875,-3.75195 C 88.18975,407.36819 71,384.961 71,359.5 c 0,-3.81 0.383625,-7.62575 1.140625,-11.34375 0.702,-3.447 -1.085781,-6.91961 -4.300781,-8.34961 C 50.320844,332.01864 39,314.626 39,295.5 39,286.801 41.255547,278.48609 45.560547,271.12109 56.756547,280.99209 71.436,287 87.5,287 91.642,287 95,283.643 95,279.5 95,275.357 91.642,272 87.5,272 60.757,272 39,250.243 39,223.5 c 0,-14.396 6.351734,-27.9637 17.427734,-37.2207 2.5,-2.09 3.365625,-5.55522 2.140625,-8.57422 C 56.200359,171.86908 55,165.744 55,159.5 55,132.757 76.757,111 103.5,111 c 13.74917,0 26.15205,5.77738 34.98633,15 h 18.89453 C 146.83298,109.10517 128.59168,97.484565 107.57812,96.144531 104.57614,91.126531 103,85.421 103,79.5 c 0,-13.369 8.11573,-24.875375 19.67773,-29.859375 0.447,-0.133 0.8856,-0.307344 1.3086,-0.527344 C 127.56833,47.751281 131.447,47 135.5,47 c 12.557,0 23.76686,7.020219 29.25586,18.324219 1.81,3.727 6.29844,5.281703 10.02344,3.470703 3.726,-1.809 5.27875,-6.295485 3.46875,-10.021484 C 171.98205,45.870437 160.1238,36.595547 146.4668,33.310547 165.6088,21.630547 184.454,15 199.5,15 Z m 10.89844,114.68555 v 15.18359 h -1.82617 c 2.65065,1.12284 5.07631,2.69305 7.17773,4.61914 v -17.83203 c -1.72129,-0.78529 -3.51974,-1.41771 -5.35156,-1.9707 z" />
	<path
   d="m 412.08425,218.5343 c -2.77736,9.57311 -11.85861,15.63518 -21.4211,14.99268 3.06138,-19.90566 -9.06003,-39.53511 -28.91057,-45.29414 -2.55287,-0.74063 -5.22172,0.7284 -5.96218,3.28066 -0.74046,2.55225 0.72778,5.22154 3.28065,5.96218 16.47875,4.78081 25.9957,22.07669 21.21489,38.55544 -2.34955,8.09858 -7.73543,14.75576 -15.16594,18.74543 -2.34075,1.25692 -3.21992,4.17446 -1.96253,6.51601 1.25735,2.34155 4.17426,3.22055 6.51582,1.9632 8.40162,-4.51161 14.80033,-11.63185 18.37237,-20.31972 14.68265,1.95896 29.03141,-7.07091 33.28145,-21.72019 0.74047,-2.55226 -0.72778,-5.22155 -3.28065,-5.96218 -2.55287,-0.74064 -5.22173,0.7284 -5.96219,3.28065 z"
   id="path4"
   style="display:inline;fill:url(#linearGradient6);stroke:none;stroke-width:0.641597" />
	<path
   d="m 303.06115,430.80829 c 0,-2.13539 -0.15664,-4.23383 -0.43447,-6.29459 0.26822,0.005 0.53643,0.0141 0.80392,0.0141 25.87145,0 46.91944,-21.04798 46.91944,-46.91944 0,-3.06047 -2.48045,-5.54166 -5.54167,-5.54166 -3.06121,0 -5.54166,2.48119 -5.54166,5.54166 0,19.76011 -16.07601,35.83611 -35.83611,35.83611 -1.26646,0 -2.53735,-0.0673 -3.79272,-0.19876 -6.96772,-17.19321 -23.8336,-29.35679 -43.49617,-29.35679 -3.06122,0 -5.54167,2.48118 -5.54167,5.54167 0,3.06047 2.48045,5.54167 5.54167,5.54167 19.76011,0 35.8361,16.07599 35.8361,35.8361 0,3.06048 2.48045,5.54167 5.54167,5.54167 3.06122,0 5.54167,-2.48119 5.54167,-5.54167 z"
   id="path5"
   style="display:inline;fill:url(#linearGradient7);stroke:none;stroke-width:0.738889" />
<path
   id="path25"
   style="fill:url(#linearGradient8);fill-opacity:1;stroke:none;stroke-width:1.21068;stroke-linecap:round"
   d="m 138.61328,96.712891 c -0.98311,-0.03165 -1.95581,-0.02406 -2.91211,0.01953 -15.55013,0.70872 -21.51579,5.986519 -25.74023,10.765629 -7.57073,8.56508 -5.49776,17.8122 -5.7168,19.41992 l 0.14258,193.08594 c 0.0143,19.12694 10.92482,36.01968 24.57422,48.07812 12.98327,11.5245 29.99189,17.21875 49.85937,17.21875 22.1114,0 40.27104,-7.19193 52.61524,-21.54101 12.33467,14.34036 30.42961,21.54101 52.41992,21.54101 19.85789,0 36.90946,-5.68571 50.01172,-17.17773 l 0.008,-0.008 c 13.54573,-11.8031 20.55882,-28.09525 20.56055,-47.08398 v -0.006 L 354.633,126.92351 v -0.002 c 0,-8.44291 -3.80043,-16.452 -10.28515,-23.23829 l -0.004,-0.004 -0.004,-0.004 c -4.72384,-4.92057 -11.64254,-6.9375 -19.30078,-6.9375 -8.67558,0 -16.82671,3.91615 -23.39648,10.63867 l -0.0606,0.0625 -0.0586,0.0625 c -4.62696,4.98818 -6.66472,11.86578 -6.66602,19.41211 l -0.19922,195.29102 v 0.002 c 0,5.2102 -1.34395,8.0382 -4.26367,10.4668 -3.23778,2.55997 -7.07683,3.88476 -12.45117,3.88476 -5.41443,0 -9.30812,-1.30014 -12.53906,-3.75781 -2.79503,-2.24385 -4.17774,-5.06838 -4.17774,-10.59375 v -195.2866 c 0,-8.44289 -3.79861,-16.45198 -10.2832,-23.23828 l -0.004,-0.004 -0.004,-0.004 c -4.72371,-4.920742 -11.64248,-6.937502 -19.30078,-6.937502 l -0.002,-0.002 c -8.67555,0 -16.8267,3.916102 -23.39648,10.638672 l -0.0625,0.0625 -0.0586,0.0625 c -4.62392,4.99401 -6.66601,11.87058 -6.66601,19.41992 v 195.28711 c 0,5.48295 -1.38162,8.25934 -4.29688,10.5332 -3.39447,2.51055 -7.39332,3.81836 -12.81054,3.81836 -5.20007,0 -8.96345,-1.30518 -12.2168,-3.86523 -2.7716,-2.39368 -4.10547,-5.26102 -4.10547,-10.48633 V 130.86133 c 0,-16.30529 -3.25192,-20.5357 -10.29687,-27.19141 -4.89526,-4.624854 -12.22762,-6.735479 -19.10938,-6.957029 z m 92.34961,266.548829 c 0.0238,0.0276 0.0504,0.051 0.0742,0.0801 0.0563,0.06 0.002,0.0121 0.11133,0.13281 z m 0.94727,0 h 0.002 l -0.1875,0.21289 c 0.11125,-0.12154 0.0542,-0.0733 0.11133,-0.13477 0.0235,-0.0271 0.0508,-0.0503 0.0742,-0.0781 z" /></g>
</svg>
